<?xml version="1.0" encoding="UTF-8" standalone="no"?>
<svg xmlns="http://www.w3.org/2000/svg" xmlns:xlink="http://www.w3.org/1999/xlink" clip-rule="evenodd" stroke-miterlimit="10" viewBox="0 0 396.85 240.94">
    <desc>SVG generated by Lineform</desc>
    <defs/>
    <g>
        <path d="M 352.68 141.74 L 8.85 139.50 " stroke="#999999" stroke-width="10.00" fill="none"/>
        <path d="M 266.14 32.92 C 283.68 33.30 291.77 54.37 291.69 67.78 C 291.60 80.75 279.12 98.66 266.14 98.56 C 244.69 98.39 228.34 98.48 206.88 98.31 C 194.17 98.21 182.36 79.32 182.36 66.76 C 182.36 51.61 191.73 33.55 207.40 32.66 Z M 265.89 32.92 " stroke="#999999" stroke-width="4.00" fill="none"/>
        <path d="M 93.41 140.20 C 68.47 140.02 41.53 115.41 41.28 98.53 C 40.97 78.26 41.53 66.23 41.53 45.96 C 41.53 33.50 43.38 16.42 74.97 12.37 C 92.19 10.16 105.49 8.79 125.06 32.06 C 140.58 50.52 150.87 50.27 154.55 50.78 C 171.13 53.06 187.97 24.95 204.71 25.00 C 255.45 25.18 300.58 25.52 350.46 25.52 C 359.38 25.52 370.12 32.41 370.12 44.39 C 370.12 57.42 357.10 68.17 357.10 80.69 C 357.10 95.28 380.51 105.58 380.41 120.17 C 380.24 144.95 380.07 161.49 379.90 186.27 C 379.88 188.99 377.14 192.96 374.51 193.61 C 365.48 195.82 351.45 198.38 343.69 203.49 C 330.75 212.00 322.77 226.34 307.36 224.79 C 282.84 222.32 270.27 221.50 245.76 218.88 C 222.61 216.41 223.63 199.44 224.71 189.11 C 225.76 179.01 232.75 174.33 244.80 172.90 C 267.52 170.19 293.20 189.74 302.01 190.57 C 312.18 191.53 322.69 190.75 332.91 190.55 C 344.90 190.32 346.83 174.21 347.43 165.78 C 348.15 155.72 340.86 141.85 330.35 141.48 Z M 90.42 138.45 " stroke="#000000" stroke-width="6.00" fill="none"/>
        <g>
            <path d="M 238.28 133.61 L 238.07 128.12 L 228.17 131.17 Z M 238.28 133.61 " fill-rule="non-zero" fill="#FF0000"/>
            <g>
                <path d="M 225.54 147.27 L 225.53 143.69 L 221.96 143.70 L 221.97 147.28 Z M 225.54 147.27 " fill-rule="non-zero" fill="#000000"/>
                <path d="M 221.97 147.28 L 221.96 143.70 L 218.39 143.72 L 218.40 147.29 Z M 221.97 147.28 " fill-rule="non-zero" fill="#FFFFFF"/>
                <path d="M 218.40 147.29 L 218.39 143.72 L 214.81 143.73 L 214.83 147.30 Z M 218.40 147.29 " fill-rule="non-zero" fill="#000000"/>
                <path d="M 225.53 143.72 L 225.52 140.15 L 221.95 140.16 L 221.96 143.74 Z M 225.53 143.72 " fill-rule="non-zero" fill="#FFFFFF"/>
                <path d="M 218.39 143.75 L 218.37 140.18 L 214.80 140.19 L 214.81 143.76 Z M 218.39 143.75 " fill-rule="non-zero" fill="#FFFFFF"/>
                <path d="M 221.96 143.77 L 221.95 140.20 L 218.37 140.21 L 218.39 143.78 Z M 221.96 143.77 " fill-rule="non-zero" fill="#000000"/>
                <path d="M 225.52 140.18 L 225.51 136.61 L 221.94 136.62 L 221.95 140.20 Z M 225.52 140.18 " fill-rule="non-zero" fill="#000000"/>
                <path d="M 221.95 140.20 L 221.94 136.62 L 218.36 136.63 L 218.37 140.21 Z M 221.95 140.20 " fill-rule="non-zero" fill="#FFFFFF"/>
                <path d="M 218.37 140.21 L 218.36 136.63 L 214.79 136.65 L 214.80 140.22 Z M 218.37 140.21 " fill-rule="non-zero" fill="#000000"/>
                <path d="M 225.51 136.64 L 225.50 133.07 L 221.92 133.08 L 221.94 136.65 Z M 225.51 136.64 " fill-rule="non-zero" fill="#FFFFFF"/>
                <path d="M 218.36 136.67 L 218.35 133.09 L 214.78 133.11 L 214.79 136.68 Z M 218.36 136.67 " fill-rule="non-zero" fill="#FFFFFF"/>
                <path d="M 221.94 136.69 L 221.92 133.11 L 218.35 133.13 L 218.36 136.70 Z M 221.94 136.69 " fill-rule="non-zero" fill="#000000"/>
                <path d="M 225.62 133.16 L 225.61 129.59 L 222.04 129.60 L 222.05 133.18 Z M 225.62 133.16 " fill-rule="non-zero" fill="#000000"/>
                <path d="M 222.05 133.18 L 222.04 129.60 L 218.47 129.62 L 218.48 133.19 Z M 222.05 133.18 " fill-rule="non-zero" fill="#FFFFFF"/>
                <path d="M 218.48 133.19 L 218.47 129.62 L 214.89 129.63 L 214.90 133.20 Z M 218.48 133.19 " fill-rule="non-zero" fill="#000000"/>
            </g>
        </g>
    </g>
</svg>